<svg data-v-423bf9ae="" xmlns="http://www.w3.org/2000/svg" viewBox="0 0 211.94418807676416 60" class="font"><!----><!----><defs data-v-423bf9ae=""><linearGradient data-v-423bf9ae="" gradientTransform="rotate(25)" id="5f4b252e-509f-4298-ad02-cb4183501af2" x1="0%" y1="0%" x2="100%" y2="0%"><stop data-v-423bf9ae="" offset="0%" style="stop-color: rgb(57, 94, 202); stop-opacity: 1;"></stop><stop data-v-423bf9ae="" offset="100%" style="stop-color: rgb(132, 139, 216); stop-opacity: 1;"></stop></linearGradient></defs><g data-v-423bf9ae="" id="24bbdd3d-3194-4c2b-bd82-b7c5d91eac1e" fill="url(#5f4b252e-509f-4298-ad02-cb4183501af2)" transform="matrix(4.238036296544038,0,0,4.238036296544038,-2.7971005295835454,-2.765319421001159)"><path d="M7.99 8.68L2.49 8.68L2.49 6.47L7.80 6.47L7.80 4.75L2.49 4.75L2.49 2.49L7.99 2.49L7.99 0.70L0.66 0.70C0.66 3.96 0.66 7.24 0.66 10.50L7.99 10.50ZM14.71 4.55C14.32 3.86 13.44 3.43 12.52 3.43C10.50 3.42 8.92 4.66 8.92 7.04C8.92 9.46 10.43 10.72 12.47 10.71C13.24 10.70 14.32 10.30 14.71 9.49L14.80 10.50L16.41 10.50L16.41 3.60L14.77 3.60ZM12.67 4.96C15.36 4.96 15.36 9.14 12.67 9.14C11.54 9.14 10.63 8.36 10.63 7.04C10.63 5.73 11.54 4.96 12.67 4.96ZM24.64 10.50L24.64 6.87C24.64 4.70 23.34 3.49 21.71 3.49C20.85 3.49 20.15 3.84 19.45 4.52L19.33 3.58L17.81 3.58L17.81 10.50L19.50 10.50L19.50 6.97C19.50 5.92 20.22 5.04 21.27 5.04C22.36 5.04 22.93 5.84 22.93 6.89L22.93 10.50ZM26.11 3.60L26.11 10.50L27.82 10.50L27.82 6.86C27.82 5.59 28.64 5.11 29.54 5.11C30.10 5.11 30.42 5.26 30.77 5.56L31.54 4.07C31.16 3.70 30.48 3.42 29.76 3.42C29.06 3.42 28.35 3.54 27.82 4.40L27.69 3.60ZM37.60 4.55C37.21 3.86 36.33 3.43 35.41 3.43C33.39 3.42 31.81 4.66 31.81 7.04C31.81 9.46 33.32 10.72 35.36 10.71C36.13 10.70 37.21 10.30 37.60 9.49L37.69 10.50L39.30 10.50L39.30 3.60L37.66 3.60ZM35.56 4.96C38.25 4.96 38.25 9.14 35.56 9.14C34.43 9.14 33.52 8.36 33.52 7.04C33.52 5.73 34.43 4.96 35.56 4.96ZM42.45 3.57L42.45 10.50L40.74 10.50L40.74 3.57ZM40.59 1.65C40.59 2.98 42.60 2.98 42.60 1.65C42.60 0.32 40.59 0.32 40.59 1.65ZM48.72 3.77C48.24 3.44 47.68 3.37 47.14 3.37C45.21 3.37 43.64 4.72 43.64 6.87C43.64 9.03 44.98 10.35 47.14 10.35C47.99 10.35 48.89 10.78 48.89 11.73C48.89 12.68 48.12 13.22 47.14 13.22C46.16 13.22 45.33 12.63 45.33 11.73L43.64 11.73C43.64 13.59 45.14 14.81 47.14 14.81C49.14 14.81 50.60 13.64 50.60 11.73C50.60 10.85 50.32 10.02 49.17 9.45C50.30 8.93 50.62 7.73 50.62 6.87C50.62 6.12 50.43 5.43 49.90 4.83L50.67 3.85L49.41 2.90ZM47.14 4.93C48.12 4.93 48.93 5.68 48.93 6.87C48.93 8.06 48.12 8.79 47.14 8.79C46.14 8.79 45.33 8.08 45.33 6.87C45.33 5.67 46.14 4.93 47.14 4.93Z"></path></g><!----><!----></svg>