<svg data-v-423bf9ae="" xmlns="http://www.w3.org/2000/svg" viewBox="0 0 216.81115988093438 60" class="font"><!----><!----><defs data-v-423bf9ae=""><linearGradient data-v-423bf9ae="" gradientTransform="rotate(25)" id="5db54fd0-f3da-472e-90dd-68e0db1a91fc" x1="0%" y1="0%" x2="100%" y2="0%"><stop data-v-423bf9ae="" offset="0%" style="stop-color: rgb(13, 124, 233); stop-opacity: 1;"></stop><stop data-v-423bf9ae="" offset="100%" style="stop-color: rgb(21, 207, 241); stop-opacity: 1;"></stop></linearGradient></defs><g data-v-423bf9ae="" id="e736627b-9156-4592-b1de-1526dd28a75c" fill="url(#5db54fd0-f3da-472e-90dd-68e0db1a91fc)" transform="matrix(4.408522947042699,0,0,4.408522947042699,-2.9977934460331426,-14.988977963537529)"><path d="M7.12 9.87C7.12 8.00 6.08 6.55 3.98 6.55C2.05 6.55 0.68 8.20 0.68 10.14C0.68 12.09 2.17 13.73 4.25 13.73C5.32 13.73 6.03 13.26 6.30 12.99L6.30 11.85C5.85 12.18 5.24 12.63 4.25 12.63C2.94 12.63 2.04 11.69 1.87 10.54L7.12 10.54ZM1.90 9.58C2.09 8.50 2.86 7.64 3.98 7.64C4.94 7.64 5.88 8.26 6.02 9.58ZM11.79 6.55C9.91 6.55 8.49 7.96 8.49 10.21C8.49 12.29 9.91 13.73 11.68 13.73C12.71 13.73 13.55 13.08 14.03 12.36L14.03 13.52L15.15 13.52L15.15 6.69L14.03 6.69L14.03 7.60C13.44 6.95 12.56 6.55 11.79 6.55ZM11.99 7.64C12.82 7.64 13.44 8.07 14.01 8.78L14.03 10.09C14.04 11.55 13.10 12.63 11.85 12.63C10.53 12.63 9.65 11.54 9.65 10.21C9.65 8.89 10.53 7.64 11.99 7.64ZM20.82 6.55C19.89 6.55 19.02 7.23 18.59 7.77L18.59 6.69L17.47 6.69L17.47 13.52L18.59 13.52L18.59 8.98C19.14 8.27 19.91 7.64 20.63 7.64C21.71 7.64 22.22 8.29 22.22 9.46L22.23 13.52L23.35 13.52L23.35 9.35C23.35 7.46 22.22 6.55 20.82 6.55ZM28.70 6.55C27.92 6.55 27.11 7.15 26.59 8.05L26.59 6.69L25.47 6.69L25.47 13.52L26.59 13.52L26.59 9.39C27.10 8.48 27.60 7.72 28.53 7.72C28.89 7.72 29.24 7.86 29.53 8.08L29.53 6.74C29.29 6.62 29.01 6.55 28.70 6.55ZM33.78 6.55C31.91 6.55 30.49 7.96 30.49 10.21C30.49 12.29 31.91 13.73 33.67 13.73C34.71 13.73 35.55 13.08 36.03 12.36L36.03 13.52L37.15 13.52L37.15 6.69L36.03 6.69L36.03 7.60C35.44 6.95 34.56 6.55 33.78 6.55ZM33.99 7.64C34.82 7.64 35.44 8.07 36.01 8.78L36.03 10.09C36.04 11.55 35.10 12.63 33.85 12.63C32.53 12.63 31.65 11.54 31.65 10.21C31.65 8.89 32.53 7.64 33.99 7.64ZM40.56 5.26C41.08 5.26 41.49 4.81 41.49 4.33C41.49 3.84 41.08 3.40 40.56 3.40C40.03 3.40 39.63 3.84 39.63 4.33C39.63 4.81 40.03 5.26 40.56 5.26ZM41.26 6.69L39.06 6.69L39.06 7.74L40.14 7.74L40.14 13.52L41.26 13.52ZM46.50 6.55C44.63 6.55 43.20 7.96 43.20 10.21C43.20 12.29 44.63 13.73 46.39 13.73C47.43 13.73 48.26 13.08 48.74 12.36L48.74 13.79C48.74 15.15 47.59 15.91 46.27 15.91C45.08 15.91 44.15 15.29 43.76 15.07L43.76 16.27C44.24 16.57 44.99 17.01 46.27 17.01C48.21 17.01 49.86 15.83 49.86 13.38L49.86 6.69L48.74 6.69L48.74 7.60C48.15 6.95 47.28 6.55 46.50 6.55ZM46.70 7.66C47.54 7.66 48.15 8.07 48.73 8.78L48.74 10.09C48.75 11.55 47.81 12.62 46.57 12.62C45.24 12.62 44.37 11.54 44.37 10.21C44.37 8.89 45.24 7.66 46.70 7.66Z"></path></g><!----><!----></svg>